<?xml version="1.0" standalone="no"?>
<!DOCTYPE svg PUBLIC "-//W3C//DTD SVG 20010904//EN"
 "http://www.w3.org/TR/2001/REC-SVG-20010904/DTD/svg10.dtd">
<svg version="1.0" xmlns="http://www.w3.org/2000/svg"
 width="700.000000pt" height="700.000000pt" viewBox="0 0 700.000000 700.000000"
 preserveAspectRatio="xMidYMid meet">
<metadata>
Created by potrace 1.14, written by Peter Selinger 2001-2017
</metadata>
<g transform="translate(0.000000,700.000000) scale(0.100000,-0.100000)"
fill="#000000" stroke="none">
<path d="M10 3500 l0 -3490 3490 0 3490 0 0 3490 0 3490 -484 0 -483 0 -168
-318 c-92 -174 -223 -420 -290 -547 -68 -126 -223 -419 -345 -650 -122 -231
-239 -451 -260 -490 -21 -38 -113 -212 -205 -385 -732 -1376 -970 -1819 -986
-1835 -6 -5 6 20 26 57 20 37 34 72 31 77 -4 5 -2 13 4 16 6 4 10 14 9 23 -1
10 3 30 9 45 7 16 12 37 12 47 0 10 4 21 9 24 4 3 19 38 31 78 13 40 26 78 30
83 4 6 37 80 75 165 37 85 74 171 83 190 8 19 19 37 23 40 4 3 43 75 87 160
43 85 90 178 104 205 14 28 45 88 68 135 55 109 120 232 130 245 5 6 36 64 70
130 116 223 125 240 153 280 15 22 27 45 27 51 0 6 7 17 15 24 8 7 21 24 28
39 55 107 92 163 100 154 4 -3 7 -1 7 5 0 11 117 190 136 207 6 6 24 33 39 60
61 109 329 603 559 1030 322 597 346 642 346 649 0 3 -31 6 -69 6 l-69 0 -107
-202 c-264 -499 -308 -579 -311 -575 -2 2 56 116 129 253 73 137 166 311 206
387 l72 137 -2910 0 -2911 0 0 -3490z m6001 3124 c-35 -74 -38 -87 -16 -58 15
18 15 18 8 0 -5 -15 -3 -17 7 -11 10 6 12 4 7 -8 -3 -10 -2 -17 4 -17 11 0
-125 -269 -348 -690 -72 -135 -237 -447 -368 -695 -131 -247 -255 -481 -275
-520 -43 -79 -426 -802 -515 -970 -168 -317 -1018 -1863 -1072 -1948 -13 -21
-30 -40 -38 -42 -8 -3 -23 -8 -32 -12 -10 -3 -21 -7 -25 -7 -3 -1 -10 -5 -15
-10 -5 -5 -3 -6 5 -2 6 4 12 2 12 -4 0 -7 -7 -10 -15 -6 -10 3 -20 -5 -30 -24
-9 -17 -18 -30 -21 -30 -2 0 3 15 12 33 66 128 617 1175 759 1442 24 44 196
369 384 722 879 1656 1443 2703 1452 2698 4 -3 6 3 5 13 0 9 5 16 11 15 8 -2
12 6 10 20 -1 14 3 21 12 19 8 -2 11 3 8 12 -4 9 -2 15 4 13 5 -1 17 12 27 28
9 17 19 32 22 35 3 3 14 22 25 42 32 62 29 34 -4 -38z m-659 -556 c-127 -242
-174 -328 -179 -328 -3 0 20 46 50 103 30 56 85 159 121 230 37 70 70 127 73
127 2 0 -27 -60 -65 -132z m-217 -408 c-14 -27 -28 -50 -30 -50 -3 0 6 23 20
50 14 28 28 50 30 50 3 0 -6 -22 -20 -50z m-77 -145 c-18 -35 -34 -63 -36 -61
-4 5 56 126 63 126 3 0 -10 -29 -27 -65z m1135 -263 c-36 -70 -175 -332 -308
-582 -133 -250 -318 -597 -410 -770 -92 -173 -184 -346 -205 -385 -21 -38 -76
-142 -122 -230 -171 -322 -513 -964 -590 -1108 -44 -81 -84 -145 -89 -142 -11
8 28 85 43 85 6 0 9 3 5 6 -7 7 43 108 138 284 34 63 106 198 160 300 125 237
510 962 562 1060 23 41 80 149 128 240 631 1192 719 1353 730 1342 5 -4 6 0 2
10 -6 18 1 30 14 22 5 -3 -21 -62 -58 -132z m-348 -162 c-9 -16 -18 -30 -21
-30 -2 0 2 14 11 30 9 17 18 30 21 30 2 0 -2 -13 -11 -30z m480 0 c-9 -16 -18
-30 -21 -30 -2 0 2 14 11 30 9 17 18 30 21 30 2 0 -2 -13 -11 -30z m-514 -63
c-10 -9 -11 -8 -5 6 3 10 9 15 12 12 3 -3 0 -11 -7 -18z m481 1 c-7 -7 -12 -8
-12 -2 0 14 12 26 19 19 2 -3 -1 -11 -7 -17z m-527 -88 c-14 -27 -28 -50 -30
-50 -3 0 6 23 20 50 14 28 28 50 30 50 3 0 -6 -22 -20 -50z m455 -50 c-17 -33
-32 -60 -35 -60 -5 0 13 41 38 88 31 57 28 34 -3 -28z m-540 -110 c-17 -33
-33 -60 -35 -60 -3 0 8 27 25 60 17 33 33 60 35 60 3 0 -8 -27 -25 -60z m461
-33 c-10 -9 -11 -8 -5 6 3 10 9 15 12 12 3 -3 0 -11 -7 -18z m-541 -117 c-17
-33 -33 -60 -35 -60 -3 0 8 27 25 60 17 33 33 60 35 60 3 0 -8 -27 -25 -60z
m480 0 c-6 -11 -13 -20 -16 -20 -2 0 0 9 6 20 6 11 13 20 16 20 2 0 0 -9 -6
-20z m-48 -91 c-24 -43 -30 -48 -29 -27 1 15 7 26 12 25 6 -1 10 9 10 23 0 15
5 24 13 23 6 -2 12 2 12 9 0 6 3 9 6 5 4 -3 -7 -29 -24 -58z m-479 6 c-3 -9
-8 -14 -10 -11 -3 3 -2 9 2 15 9 16 15 13 8 -4z m-38 -75 c-14 -27 -28 -50
-30 -50 -3 0 6 23 20 50 14 28 28 50 30 50 3 0 -6 -22 -20 -50z m446 -67 c-12
-20 -14 -14 -5 12 4 9 9 14 11 11 3 -2 0 -13 -6 -23z m-526 -83 c-19 -38 -38
-70 -40 -70 -3 0 11 32 30 70 19 39 38 70 40 70 3 0 -11 -31 -30 -70z m488 13
c-3 -7 -6 -13 -8 -13 -2 0 -5 6 -8 13 -3 8 1 14 8 14 7 0 11 -6 8 -14z m-573
-173 c-17 -33 -33 -60 -35 -60 -3 0 8 27 25 60 17 33 33 60 35 60 3 0 -8 -27
-25 -60z m-85 -160 c-19 -38 -38 -70 -40 -70 -3 0 11 32 30 70 19 39 38 70 40
70 3 0 -11 -31 -30 -70z m456 -47 c-12 -20 -14 -14 -5 12 4 9 9 14 11 11 3 -2
0 -13 -6 -23z m-536 -103 c-14 -27 -28 -50 -30 -50 -3 0 6 23 20 50 14 28 28
50 30 50 3 0 -6 -22 -20 -50z m-85 -160 c-17 -33 -33 -60 -35 -60 -3 0 8 27
25 60 17 33 33 60 35 60 3 0 -8 -27 -25 -60z m-90 -170 c-17 -33 -33 -60 -35
-60 -3 0 8 27 25 60 17 33 33 60 35 60 3 0 -8 -27 -25 -60z m-80 -150 c-17
-33 -33 -60 -35 -60 -3 0 8 27 25 60 17 33 33 60 35 60 3 0 -8 -27 -25 -60z
m-85 -160 c-19 -38 -38 -70 -40 -70 -3 0 11 32 30 70 19 39 38 70 40 70 3 0
-11 -31 -30 -70z m-85 -160 c-17 -33 -33 -60 -35 -60 -3 0 8 27 25 60 17 33
33 60 35 60 3 0 -8 -27 -25 -60z m-80 -150 c-17 -33 -33 -60 -35 -60 -3 0 8
27 25 60 17 33 33 60 35 60 3 0 -8 -27 -25 -60z m-85 -160 c-14 -27 -28 -50
-30 -50 -3 0 6 23 20 50 14 28 28 50 30 50 3 0 -6 -22 -20 -50z m-85 -160
c-17 -33 -33 -60 -35 -60 -3 0 8 27 25 60 17 33 33 60 35 60 3 0 -8 -27 -25
-60z m-46 -575 c-4 -8 -11 -12 -17 -8 -8 5 -7 8 1 11 7 2 9 9 6 14 -4 7 -2 8
4 4 6 -4 9 -13 6 -21z"/>
<path d="M5977 6945 c-9 -19 -15 -35 -12 -35 7 0 37 61 33 66 -3 2 -12 -12
-21 -31z"/>
</g>
</svg>
